<svg width="212" height="314" viewBox="0 0 212 314" fill="none" xmlns="http://www.w3.org/2000/svg">
<circle cx="73.5" cy="189.5" r="73.5" fill="#0B1F35" fill-opacity="0.08"/>
<path d="M161.472 191.888C157.68 191.888 154.584 190.64 152.184 188.144C149.784 185.648 148.584 182.24 148.584 177.92C148.584 175.088 149.136 172.616 150.24 170.504C151.344 168.392 152.856 166.784 154.776 165.68C156.744 164.528 158.976 163.952 161.472 163.952C165.312 163.952 168.432 165.224 170.832 167.768C173.232 170.264 174.432 173.648 174.432 177.92C174.432 182.24 173.232 185.648 170.832 188.144C168.432 190.64 165.312 191.888 161.472 191.888ZM191.28 164.6H201.648L167.232 215H156.864L191.28 164.6ZM161.472 185.048C162.768 185.048 163.8 184.472 164.568 183.32C165.336 182.168 165.72 180.368 165.72 177.92C165.72 175.472 165.336 173.672 164.568 172.52C163.8 171.368 162.768 170.792 161.472 170.792C160.224 170.792 159.192 171.392 158.376 172.592C157.608 173.744 157.224 175.52 157.224 177.92C157.224 180.32 157.608 182.12 158.376 183.32C159.192 184.472 160.224 185.048 161.472 185.048ZM197.04 215.648C193.2 215.648 190.08 214.4 187.68 211.904C185.328 209.408 184.152 206 184.152 201.68C184.152 197.408 185.352 194.024 187.752 191.528C190.152 188.984 193.248 187.712 197.04 187.712C200.88 187.712 204 188.984 206.4 191.528C208.8 194.024 210 197.408 210 201.68C210 206 208.8 209.408 206.4 211.904C204 214.4 200.88 215.648 197.04 215.648ZM197.04 208.808C198.336 208.808 199.368 208.232 200.136 207.08C200.904 205.928 201.288 204.128 201.288 201.68C201.288 199.232 200.904 197.432 200.136 196.28C199.368 195.128 198.336 194.552 197.04 194.552C195.744 194.552 194.712 195.128 193.944 196.28C193.176 197.432 192.792 199.232 192.792 201.68C192.792 204.128 193.176 205.928 193.944 207.08C194.712 208.232 195.744 208.808 197.04 208.808Z" fill="#CC1818"/>
<path d="M168.75 40V66.25L103.75 215H59.75L122.5 73H64.5V101.5H28.5V40H168.75Z" fill="#CC1818"/>
</svg>
